<svg width="30" height="31" viewBox="0 0 30 31" fill="none" xmlns="http://www.w3.org/2000/svg">
<path d="M8.74947 8.29223C8.74947 4.98024 11.4315 2.29819 14.7435 2.29819C18.0555 2.29819 20.7376 4.98024 20.7376 8.29223C20.7376 11.6042 18.0555 14.2863 14.7435 14.2863C11.4315 14.2863 8.74947 11.6042 8.74947 8.29223ZM1.43967 24.7393C1.43967 24.0073 1.79591 23.2688 2.61445 22.5133C3.44194 21.7496 4.65107 21.0607 6.09327 20.4829C8.97977 19.3266 12.4683 18.7453 14.7435 18.7453C17.0187 18.7453 20.5073 19.3266 23.3938 20.4829C24.836 21.0607 26.0451 21.7496 26.8726 22.5133C27.6911 23.2688 28.0474 24.0073 28.0474 24.7393V28.9059H1.43967V24.7393Z" stroke="#C2CFE0" stroke-width="2.63153"/>
</svg>
