<svg width="73" height="73" viewBox="0 0 73 73" fill="none" xmlns="http://www.w3.org/2000/svg">
<rect x="0.0817871" width="72.8663" height="72.8663" fill="#D9D9D9" fill-opacity="0.01"/>
<path d="M58.0299 11.2783H58.0296H49.818V7.40068C49.818 6.89655 49.6178 6.41307 49.2613 6.0566C48.9048 5.70012 48.4213 5.49986 47.9172 5.49986C47.4131 5.49986 46.9296 5.70012 46.5731 6.0566C46.2166 6.41307 46.0164 6.89655 46.0164 7.40068V11.2783H26.7041V7.40068C26.7041 6.89655 26.5038 6.41307 26.1473 6.0566C25.7909 5.70012 25.3074 5.49986 24.8032 5.49986C24.2991 5.49986 23.8156 5.70012 23.4592 6.0566C23.1027 6.41307 22.9024 6.89655 22.9024 7.40068V11.2783L14.6909 11.2783L14.6903 11.2783C12.6546 11.2808 10.7028 12.0906 9.26333 13.5301C7.82381 14.9696 7.01402 16.9213 7.01158 18.9571V18.9577L7.01158 56.5178L7.01158 56.5184C7.01402 58.5542 7.82381 60.5059 9.26333 61.9454C10.7028 63.3849 12.6546 64.1947 14.6903 64.1971H14.6909H58.0296H58.0299C60.066 64.1955 62.0182 63.386 63.458 61.9462C64.8977 60.5065 65.7072 58.5543 65.7089 56.5182V56.5178V18.9577V18.9573C65.7072 16.9212 64.8977 14.969 63.458 13.5293C62.0182 12.0895 60.066 11.28 58.0299 11.2783ZM61.9072 56.5178C61.9072 57.5463 61.4987 58.5326 60.7715 59.2598C60.0443 59.987 59.058 60.3955 58.0296 60.3955H14.6909C13.6625 60.3955 12.6762 59.987 11.949 59.2598C11.2218 58.5326 10.8132 57.5463 10.8132 56.5178V32.4155H61.9072V56.5178ZM61.9072 28.6138H10.8132V18.9577C10.8132 16.8169 12.5452 15.08 14.6909 15.08H22.9024V18.9577C22.9024 19.4618 23.1027 19.9453 23.4592 20.3017C23.8156 20.6582 24.2991 20.8585 24.8032 20.8585C25.3074 20.8585 25.7909 20.6582 26.1473 20.3017C26.5038 19.9453 26.7041 19.4618 26.7041 18.9577V15.08H46.0164V18.9577C46.0164 19.4618 46.2166 19.9453 46.5731 20.3017C46.9296 20.6582 47.4131 20.8585 47.9172 20.8585C48.4213 20.8585 48.9048 20.6582 49.2613 20.3017C49.6178 19.9453 49.818 19.4618 49.818 18.9577V15.08H58.0296C59.058 15.08 60.0443 15.4885 60.7715 16.2157C61.4987 16.9429 61.9072 17.9292 61.9072 18.9577V28.6138Z" fill="#828282" stroke="#828282" stroke-width="0.912393"/>
</svg>
