<svg width="73" height="73" viewBox="0 0 73 73" fill="none" xmlns="http://www.w3.org/2000/svg">
<rect x="0.0910645" width="72.8663" height="72.8663" fill="#D9D9D9" fill-opacity="0.01"/>
<path d="M47.0201 5.95606C43.9673 5.95536 40.9568 6.66982 38.2298 8.0422C35.5027 9.41457 33.1351 11.4067 31.3165 13.8589C29.498 16.3112 28.2791 19.1553 27.7575 22.1635C27.236 25.1716 27.4262 28.2602 28.3131 31.1815L5.74829 53.7481V66.7822H18.7815L41.3463 44.2157C44.0353 45.032 46.8686 45.2589 49.6532 44.8811C52.4378 44.5032 55.1083 43.5294 57.4825 42.0261C59.8568 40.5227 61.8791 38.5252 63.4115 36.1695C64.944 33.8139 65.9507 31.1555 66.363 28.3756C66.7752 25.5956 66.5834 22.7595 65.8005 20.0604C65.0176 17.3614 63.6621 14.8628 61.8263 12.735C59.9905 10.6073 57.7176 8.90031 55.1626 7.73046C52.6075 6.56062 49.8302 5.9554 47.0201 5.95606ZM47.0201 40.7139C45.5246 40.7131 44.0373 40.492 42.6062 40.0578L40.1147 39.3018L38.2748 41.1418L31.3651 48.0521L28.3696 45.0586L25.2981 48.1303L28.2936 51.126L24.8485 54.5714L21.853 51.5757L18.7815 54.6474L21.777 57.6431L16.9829 62.4375H10.0927V55.5468L31.3846 34.2533L33.2266 32.4133L32.4707 29.9216C31.5423 26.8607 31.6026 23.585 32.6431 20.5603C33.6836 17.5357 35.6513 14.9162 38.2662 13.0745C40.8812 11.2328 44.0103 10.2626 47.2084 10.3019C50.4066 10.3413 53.5109 11.3882 56.0797 13.2937C58.6486 15.1992 60.5513 17.8663 61.517 20.9156C62.4828 23.9649 62.4625 27.2411 61.4591 30.2782C60.4556 33.3153 58.5201 35.9587 55.9278 37.8322C53.3355 39.7058 50.2185 40.7141 47.0201 40.7139Z" fill="#828282"/>
<circle cx="46.8016" cy="25.7265" r="4.56196" fill="#828282"/>
</svg>
