<svg width="29" height="29" viewBox="0 0 29 29" fill="none" xmlns="http://www.w3.org/2000/svg">
<path d="M10.6514 14.6587H1.87966C1.56823 14.6587 1.31577 14.4062 1.31577 14.0948V2.19021C1.31577 1.87878 1.56823 1.62631 1.87966 1.62631H10.6514C10.9629 1.62631 11.2153 1.87878 11.2153 2.19021V14.0948C11.2153 14.4062 10.9629 14.6587 10.6514 14.6587ZM10.6514 27.1898H1.87966C1.56823 27.1898 1.31577 26.9373 1.31577 26.6259V20.9869C1.31577 20.6754 1.56823 20.423 1.87966 20.423H10.6514C10.9629 20.423 11.2153 20.6754 11.2153 20.9869V26.6259C11.2153 26.9373 10.9629 27.1898 10.6514 27.1898ZM26.3153 27.1898H17.5435C17.2321 27.1898 16.9796 26.9373 16.9796 26.6259V14.7213C16.9796 14.4099 17.2321 14.1574 17.5435 14.1574H26.3153C26.6267 14.1574 26.8792 14.4099 26.8792 14.7213V26.6259C26.8792 26.9373 26.6267 27.1898 26.3153 27.1898ZM16.9796 7.82921V2.19021C16.9796 1.87878 17.2321 1.62631 17.5435 1.62631H26.3153C26.6267 1.62631 26.8792 1.87878 26.8792 2.19021V7.82921C26.8792 8.14064 26.6267 8.39311 26.3153 8.39311H17.5435C17.2321 8.39311 16.9796 8.14064 16.9796 7.82921Z" stroke="#C2CFE0" stroke-width="2.63153"/>
</svg>
