<svg width="31" height="31" viewBox="0 0 31 31" fill="none" xmlns="http://www.w3.org/2000/svg">
<path d="M27.9728 14.1768C28.0115 14.5594 28.0308 14.9596 28.0308 15.3819C28.0308 18.2497 27.0599 20.1779 26.119 21.3851C25.7391 21.8753 25.3043 22.3177 24.8236 22.703C24.6611 22.8318 24.4919 22.9514 24.3166 23.0612L24.2973 23.0722C24.127 23.1671 23.9848 23.3076 23.8857 23.4789C23.7866 23.6501 23.7344 23.8458 23.7345 24.0451V26.9528C23.7345 27.246 23.6213 27.5272 23.4199 27.7345C23.2184 27.9418 22.9452 28.0583 22.6604 28.0583H21.5863C21.5863 27.4719 21.36 26.9095 20.9571 26.4948C20.5542 26.0802 20.0078 25.8472 19.4381 25.8472H15.1417C14.572 25.8472 14.0256 26.0802 13.6227 26.4948C13.2199 26.9095 12.9935 27.4719 12.9935 28.0583H11.9194C11.6346 28.0583 11.3614 27.9418 11.1599 27.7345C10.9585 27.5272 10.8453 27.246 10.8453 26.9528V25.6194C10.8456 25.3452 10.7468 25.0806 10.5682 24.8771C10.3895 24.6736 10.1438 24.5457 9.87866 24.5183C9.53829 24.4422 9.20483 24.3364 8.8819 24.2021C8.02532 23.8464 7.24829 23.3144 6.59837 22.6388C5.64673 21.6438 5.06457 20.3348 4.75093 19.4261C4.44374 18.5217 3.73914 17.7036 2.73164 17.4117C2.59377 17.3714 2.47243 17.2858 2.38599 17.1681C2.29955 17.0505 2.25272 16.907 2.25259 16.7594V15.0038C2.25247 14.8645 2.29643 14.7289 2.37783 14.6176C2.45922 14.5063 2.57362 14.4253 2.70371 14.3869C3.74558 14.0795 4.44159 13.2128 4.73589 12.2974C4.97649 11.5456 5.40183 10.5815 6.09355 9.85849C6.88599 9.04418 7.80156 8.36762 8.80456 7.8552C8.88834 7.81098 8.95494 7.78003 8.9979 7.76013L9.04086 7.73801L9.04946 7.7358C9.24279 7.6505 9.40754 7.50863 9.52325 7.32782C9.63896 7.147 9.70055 6.9352 9.70036 6.71868V3.01725C10.1782 3.43673 10.6803 3.82587 11.2041 4.18251C11.8851 4.64243 12.6799 5.07802 13.5112 5.31019C13.7561 4.58494 14.0913 3.89506 14.508 3.25826H14.4951C13.8958 3.19414 13.1632 2.86025 12.3791 2.33179C11.6606 1.83455 10.985 1.27454 10.3599 0.657966C10.1262 0.432424 9.83429 0.281139 9.51912 0.2223C9.20396 0.163462 8.879 0.199574 8.5833 0.326296C8.27999 0.450015 8.01966 0.664432 7.83587 0.94189C7.65207 1.21935 7.55326 1.54712 7.55217 1.88293V6.03323C6.45689 6.6409 5.45143 7.40629 4.56619 8.30628C3.5415 9.37204 2.98512 10.7031 2.69726 11.6031C2.57697 11.9723 2.33637 12.1957 2.11296 12.2598C1.5343 12.4303 1.0253 12.7901 0.662923 13.2847C0.300545 13.7794 0.10449 14.3821 0.104401 15.0016V16.7594C0.104401 18.0529 0.940046 19.1873 2.14733 19.5388C2.28471 19.5881 2.40885 19.67 2.50964 19.778C2.61043 19.886 2.68502 20.0169 2.72734 20.1602C3.08394 21.2038 3.79714 22.8644 5.06886 24.1911C6.08129 25.2444 7.32606 26.0303 8.69715 26.4818V26.9528C8.69715 27.8324 9.03664 28.676 9.64094 29.298C10.2452 29.92 11.0648 30.2695 11.9194 30.2695H12.9935C13.5633 30.2695 14.1097 30.0365 14.5125 29.6218C14.9154 29.2072 15.1417 28.6448 15.1417 28.0583H19.4381C19.4381 28.6448 19.6644 29.2072 20.0673 29.6218C20.4701 30.0365 21.0166 30.2695 21.5863 30.2695H22.6604C23.515 30.2695 24.3346 29.92 24.9389 29.298C25.5432 28.676 25.8827 27.8324 25.8827 26.9528V24.6465C26.5987 24.1108 27.2417 23.4787 27.7945 22.7671C29.0018 21.2193 30.179 18.8136 30.179 15.3819C30.179 13.9447 29.9814 12.6578 29.599 11.508C29.2161 12.4904 28.6653 13.3943 27.9728 14.1768ZM27.5819 5.67061C28.1189 7.00447 28.2185 8.48221 27.8657 9.87965C27.5129 11.2771 26.727 12.518 25.627 13.414C24.7312 14.1415 23.5046 14.0862 22.452 13.6351L17.3178 11.4483C16.2652 10.9994 15.3587 10.1459 15.2255 8.98067C15.0471 7.39133 15.4326 5.78916 16.3111 4.46922C17.1895 3.14929 18.5016 2.20047 20.0059 1.79751C21.5102 1.39454 23.1052 1.56456 24.4973 2.27626C25.8895 2.98795 26.9849 4.1934 27.5819 5.67061ZM24.2951 11.6783C24.8831 11.2 25.3394 10.5719 25.6188 9.85619C25.8981 9.14046 25.9908 8.362 25.8877 7.59801C25.7846 6.83402 25.4893 6.11105 25.031 5.5008C24.5726 4.89055 23.9673 4.41422 23.275 4.11906C22.5826 3.82391 21.8274 3.72017 21.0841 3.81815C20.3408 3.91612 19.6353 4.21241 19.0375 4.67761C18.4398 5.14282 17.9706 5.76078 17.6765 6.47021C17.3824 7.17964 17.2735 7.95589 17.3608 8.72197C17.3651 8.76619 17.3823 8.848 17.5026 8.97846C17.6846 9.16424 17.9017 9.3095 18.1406 9.40521L23.2748 11.5942C23.5092 11.702 23.7634 11.757 24.0202 11.7556C24.192 11.7512 24.2629 11.7048 24.2951 11.6783ZM10.3083 13.686C10.7356 13.686 11.1454 13.5112 11.4475 13.2002C11.7497 12.8892 11.9194 12.4674 11.9194 12.0276C11.9194 11.5878 11.7497 11.166 11.4475 10.855C11.1454 10.544 10.7356 10.3693 10.3083 10.3693C9.88099 10.3693 9.47119 10.544 9.16905 10.855C8.8669 11.166 8.69715 11.5878 8.69715 12.0276C8.69715 12.4674 8.8669 12.8892 9.16905 13.2002C9.47119 13.5112 9.88099 13.686 10.3083 13.686Z" fill="#C2CFE0"/>
</svg>
