<svg width="33" height="32" viewBox="0 0 33 32" fill="none" xmlns="http://www.w3.org/2000/svg">
<path d="M17.662 21.9693V13.9807H13.6677V15.9778H15.6648V21.9693H12.6691V23.9664H20.6577V21.9693H17.662ZM16.6634 7.98926C16.3672 7.98926 16.0776 8.07711 15.8313 8.24169C15.5849 8.40628 15.3929 8.64021 15.2796 8.91391C15.1662 9.18761 15.1365 9.48878 15.1943 9.77933C15.2521 10.0699 15.3948 10.3368 15.6043 10.5463C15.8137 10.7557 16.0806 10.8984 16.3712 10.9562C16.6618 11.014 16.9629 10.9843 17.2366 10.871C17.5103 10.7576 17.7443 10.5656 17.9088 10.3193C18.0734 10.073 18.1613 9.78336 18.1613 9.48712C18.1613 9.08986 18.0035 8.70887 17.7226 8.42797C17.4417 8.14707 17.0607 7.98926 16.6634 7.98926Z" fill="#C2CFE0"/>
<path d="M8.84574 27.6787C11.1602 29.2252 13.8813 30.0506 16.6648 30.0506C20.3975 30.0506 23.9773 28.5678 26.6166 25.9284C29.256 23.289 30.7388 19.7093 30.7388 15.9766C30.7388 13.193 29.9134 10.472 28.3669 8.15751C26.8205 5.84305 24.6224 4.03915 22.0507 2.97392C19.479 1.9087 16.6492 1.62998 13.9191 2.17303C11.189 2.71608 8.6813 4.0565 6.71301 6.02478C4.74473 7.99306 3.40431 10.5008 2.86127 13.2309C2.31822 15.961 2.59693 18.7908 3.66216 21.3625C4.72738 23.9342 6.53128 26.1322 8.84574 27.6787ZM10.0597 6.09135C12.0148 4.78499 14.3134 4.08772 16.6648 4.08772C19.818 4.08772 22.8419 5.34029 25.0715 7.56989C27.3011 9.79949 28.5537 12.8235 28.5537 15.9766C28.5537 18.328 27.8564 20.6266 26.5501 22.5817C25.2437 24.5368 23.3869 26.0606 21.2145 26.9605C19.0421 27.8603 16.6516 28.0958 14.3454 27.637C12.0392 27.1783 9.92081 26.046 8.25812 24.3833C6.59543 22.7206 5.46312 20.6022 5.00439 18.296C4.54565 15.9898 4.78109 13.5993 5.68094 11.4269C6.58078 9.25451 8.1046 7.39772 10.0597 6.09135Z" fill="#C2CFE0" stroke="#C2CFE0" stroke-width="0.187966"/>
</svg>
