<svg width="238" height="131" viewBox="0 0 238 131" fill="none" xmlns="http://www.w3.org/2000/svg">
<g clip-path="url(#clip0_1_3886)">
<path d="M36.2683 111.424C30.9889 115.351 29.4926 122.26 29.4926 122.26C29.4926 122.26 36.556 122.803 41.8354 118.876C47.1147 114.949 48.611 108.04 48.611 108.04C48.611 108.04 41.5476 107.498 36.2683 111.424Z" fill="#50E896"/>
<path d="M38.4703 113.267C35.933 119.33 29.5783 122.455 29.5783 122.455C29.5783 122.455 27.3375 115.749 29.8748 109.686C32.4121 103.623 38.7668 100.499 38.7668 100.499C38.7668 100.499 41.0076 107.205 38.4703 113.267Z" fill="#2ED47A"/>
<path d="M190.357 95.7409C189.797 91.9707 189.648 88.1508 189.915 84.3487L190.357 78.0562C187.922 82.8911 188.473 89.2548 190.357 95.7408V95.7409Z" fill="#2ED47A"/>
<path d="M192.258 96.7937C191.988 94.5439 191.917 92.2749 192.045 90.0127L192.258 86.2671C191.086 89.1451 191.351 92.933 192.258 96.7937Z" fill="#2ED47A"/>
<path d="M200.701 101.426V103.531C200.701 103.698 200.634 103.858 200.515 103.977C200.397 104.095 200.236 104.162 200.068 104.162H199.013C198.986 104.162 198.958 104.168 198.933 104.178C198.907 104.189 198.884 104.204 198.864 104.224C198.844 104.243 198.829 104.267 198.818 104.292C198.808 104.318 198.802 104.345 198.802 104.373V121.637C198.802 121.804 198.735 121.964 198.616 122.082C198.498 122.201 198.337 122.267 198.169 122.268H185.298C185.13 122.268 184.97 122.202 184.851 122.083C184.732 121.965 184.665 121.804 184.665 121.637V104.373C184.665 104.317 184.643 104.264 184.603 104.224C184.564 104.185 184.51 104.163 184.454 104.162H183.188C183.02 104.162 182.86 104.096 182.741 103.977C182.622 103.859 182.555 103.698 182.555 103.531V101.426C182.555 101.343 182.571 101.26 182.603 101.184C182.635 101.107 182.682 101.037 182.74 100.979C182.799 100.92 182.869 100.873 182.946 100.842C183.023 100.81 183.105 100.794 183.188 100.794H200.068C200.236 100.794 200.397 100.861 200.515 100.979C200.634 101.098 200.701 101.258 200.701 101.426Z" fill="#2ED47A"/>
<path d="M198.819 104.604H184.682V105.236H198.819V104.604Z" fill="#50E896"/>
<path d="M198.8 113.898C194.07 115.852 189.288 115.873 184.452 113.898V109.449C189.107 107.889 194.145 107.889 198.8 109.449V113.898Z" fill="#50E896"/>
<path d="M119.562 45.864C130.123 45.864 138.684 37.3222 138.684 26.7853C138.684 16.2484 130.123 7.70654 119.562 7.70654C109.002 7.70654 100.441 16.2484 100.441 26.7853C100.441 37.3222 109.002 45.864 119.562 45.864Z" fill="#FEB8B8"/>
<path d="M137.421 10.3258C134.562 5.69394 130.087 2.28086 124.858 0.743622L122.51 2.45284V0.23347C121.254 0.0416694 119.983 -0.0322177 118.713 0.0127805L116.688 1.84117V0.164684C113.69 0.536477 110.801 1.52415 108.204 3.06543C105.607 4.60671 103.358 6.66816 101.599 9.11979C97.2012 15.4462 96.4587 24.2475 100.785 30.6246C101.972 26.9833 103.413 23.5667 104.601 19.9257C105.534 20.0527 106.48 20.0572 107.415 19.9393L108.86 16.5757L109.263 19.797C113.741 19.4078 120.383 18.5531 124.629 17.77L124.216 15.2987L126.685 17.3522C127.986 17.0535 128.758 16.7824 128.695 16.5753C131.852 21.6541 135.716 24.8978 138.873 29.9766C140.072 22.8153 141.452 16.8607 137.421 10.3258Z" fill="#2F2E41"/>
<path d="M160.685 75.8475C160.028 71.9005 159.35 67.8777 157.511 64.3221C156.303 61.9931 154.385 59.7737 151.799 59.3132C151.29 59.2679 150.789 59.1523 150.312 58.9697C149.554 58.6056 139.373 52.8067 137.755 51.7967C136.366 50.9296 134.172 49.3241 133.067 49.3241C131.954 49.2997 127.688 50.2904 111.037 48.9917C111.037 48.9917 106.463 50.7907 102.923 52.9721C102.87 52.9368 85.6411 62.1678 84.9938 62.1435C83.7681 62.092 82.6287 62.8751 81.926 63.8612C81.2235 64.8473 80.8939 66.0681 80.5488 67.2484C84.3118 75.6099 87.7548 83.982 91.5182 92.3434C91.6944 92.6584 91.788 93.0126 91.7903 93.3733C91.7147 93.7476 91.5546 94.0998 91.3221 94.4032C89.4766 97.3611 89.5353 101.082 89.7369 104.558C89.9387 108.035 90.1882 111.707 88.631 114.823C88.2075 115.678 87.6567 116.462 87.2539 117.317C86.3105 119.255 85.9696 125.452 86.5206 127.534L155.553 129.507C154.069 125.436 160.685 75.8475 160.685 75.8475Z" fill="#2ED47A"/>
<path d="M74.5783 92.7142C74.4406 93.7084 74.4267 94.7158 74.537 95.7133L75.5264 109.891C75.6193 111.227 75.7108 112.56 75.8365 113.893C76.0739 116.48 76.4285 119.046 76.8686 121.609C76.8786 121.973 77.0328 122.318 77.2974 122.568C77.562 122.819 77.9155 122.954 78.2801 122.945C82.6355 123.865 87.1354 123.828 91.5804 123.577C98.3632 123.2 115.716 122.485 116.776 121.111C117.837 119.737 117.219 117.514 115.836 116.403C114.454 115.292 91.5542 112.583 91.5542 112.583C91.778 110.813 92.4529 109.147 93.0932 107.467C94.2434 104.488 95.3176 101.411 95.3382 98.2196C95.3589 95.0281 94.1538 91.6726 91.5336 89.8442C89.3782 88.3431 86.6031 88.0647 83.9766 88.1265C82.0656 88.1813 78.7638 87.7245 77.0183 88.47C75.637 89.0769 74.8364 91.3647 74.5783 92.7142Z" fill="#FBBEBE"/>
<path d="M80.3497 67.5027C80.0143 67.8531 79.7543 68.2681 79.5855 68.7224C76.8025 74.9805 75.1586 81.6832 74.731 88.5165C74.7385 88.8497 74.6615 89.1794 74.5072 89.475C74.355 89.6717 74.1857 89.8544 74.0011 90.0212C73.8401 90.2115 73.7184 90.4317 73.6427 90.669C73.567 90.9063 73.5389 91.1562 73.56 91.4043C73.5811 91.6525 73.651 91.894 73.7657 92.1152C73.8804 92.3365 74.0376 92.533 74.2284 92.6935C74.2597 92.7199 74.2918 92.7452 74.3247 92.7694C74.8928 91.7028 76.2527 91.3541 77.4614 91.2614C83.2489 90.8046 88.9023 93.4911 94.7071 93.2884C94.2976 91.8764 93.7085 90.5196 93.3745 89.0906C91.8974 82.7455 95.5815 75.8373 93.3229 69.7257C92.8717 68.5027 92.1179 67.3004 90.9301 66.7645C90.4383 66.5665 89.9237 66.4306 89.3981 66.3599C87.9313 66.0954 85.0114 64.9651 83.5933 65.4186C83.0698 65.5871 82.8634 66.0781 82.4295 66.375C81.7704 66.795 80.896 66.9495 80.3497 67.5027Z" fill="#50E896"/>
<path d="M160.727 88.47C158.981 87.7245 155.679 88.1813 153.768 88.1265C151.142 88.0647 148.367 88.3431 146.211 89.8442C143.591 91.6726 142.386 95.0281 142.407 98.2196C142.427 101.411 143.502 104.488 144.652 107.467C145.292 109.147 145.967 110.813 146.191 112.583C146.191 112.583 123.291 115.292 121.909 116.403C120.526 117.514 119.908 119.737 120.969 121.111C122.029 122.485 155.11 123.865 159.465 122.945C159.83 122.954 160.183 122.819 160.448 122.568C160.712 122.318 160.866 121.973 160.876 121.609C161.317 119.046 161.671 116.48 161.909 113.893C162.034 112.56 162.126 111.227 162.219 109.891L163.208 95.7134C163.318 94.7158 163.304 93.7084 163.167 92.7142C162.909 91.3647 162.108 89.0769 160.727 88.47Z" fill="#FBBEBE"/>
<path d="M155.318 66.3749C154.884 66.0781 154.677 65.5871 154.154 65.4186C152.736 64.9651 149.816 66.0954 148.349 66.3599C147.823 66.4306 147.309 66.5665 146.817 66.7645C145.629 67.3004 144.875 68.5027 144.424 69.7257C142.166 75.8373 145.85 82.7455 144.373 89.0906C144.039 90.5195 143.45 91.8764 143.04 93.2884C148.845 93.4911 154.498 90.8046 160.286 91.2614C161.494 91.3541 162.854 91.7028 163.422 92.7695C163.455 92.7452 163.487 92.7199 163.519 92.6935C163.71 92.5329 163.867 92.3365 163.981 92.1153C164.096 91.8941 164.166 91.6525 164.187 91.4043C164.208 91.1562 164.18 90.9063 164.104 90.669C164.029 90.4317 163.907 90.2115 163.746 90.0212C163.561 89.8544 163.392 89.6717 163.24 89.475C163.086 89.1794 163.009 88.8497 163.016 88.5165C162.589 81.6832 160.945 74.9805 158.162 68.7223C157.993 68.2681 157.733 67.853 157.397 67.5027C156.851 66.9495 155.977 66.795 155.318 66.3749Z" fill="#50E896"/>
<path d="M113.896 123.622C116.746 123.622 119.057 121.317 119.057 118.473C119.057 115.629 116.746 113.323 113.896 113.323C111.046 113.323 108.735 115.629 108.735 118.473C108.735 121.317 111.046 123.622 113.896 123.622Z" fill="#FBBEBE"/>
<path d="M125.325 123.622C128.175 123.622 130.486 121.317 130.486 118.473C130.486 115.629 128.175 113.323 125.325 113.323C122.475 113.323 120.164 115.629 120.164 118.473C120.164 121.317 122.475 123.622 125.325 123.622Z" fill="#FBBEBE"/>
<path d="M157.185 130.076H86.2823C85.4545 130.075 84.6609 129.747 84.0755 129.163C83.4902 128.579 83.1609 127.787 83.1599 126.961V84.0425C83.1609 83.2165 83.4902 82.4247 84.0755 81.8407C84.6609 81.2567 85.4545 80.9282 86.2823 80.9272H157.185C158.012 80.9282 158.806 81.2567 159.391 81.8407C159.977 82.4247 160.306 83.2165 160.307 84.0425V126.961C160.306 127.787 159.977 128.579 159.391 129.163C158.806 129.747 158.012 130.075 157.185 130.076Z" fill="#3F3D56"/>
<path d="M121.559 107.562C122.7 107.562 123.625 106.64 123.625 105.501C123.625 104.363 122.7 103.44 121.559 103.44C120.418 103.44 119.493 104.363 119.493 105.501C119.493 106.64 120.418 107.562 121.559 107.562Z" fill="#50E896"/>
<path d="M237.746 121.419H-0.000183105V128.709H14.0623V130.403H223.689V128.709H237.746V121.419Z" fill="white"/>
</g>
<defs>
<clipPath id="clip0_1_3886">
<rect width="237.747" height="130.403" fill="white"/>
</clipPath>
</defs>
</svg>
