<svg width="68" height="61" viewBox="0 0 68 61" fill="none" xmlns="http://www.w3.org/2000/svg">
<path d="M30.5629 60.9082C13.7657 60.9082 0.14978 47.2923 0.14978 30.4951C0.14978 13.698 13.7657 0.0820398 30.5629 0.0820398C35.285 0.0784923 39.9429 1.17622 44.1664 3.28801C48.39 5.3998 52.0629 8.46746 54.8934 12.2473H46.6514C43.1394 9.15049 38.8084 7.13288 34.1781 6.43655C29.5479 5.74022 24.815 6.39475 20.5475 8.32159C16.28 10.2484 12.6591 13.3658 10.1194 17.2995C7.57967 21.2332 6.22896 25.8162 6.22935 30.4985C6.22974 35.1808 7.58122 39.7636 10.1216 43.6969C12.662 47.6302 16.2834 50.7469 20.5512 52.673C24.819 54.5992 29.552 55.2529 34.1821 54.5558C38.8123 53.8587 43.1429 51.8404 46.6544 48.743H54.8964C52.0657 52.5232 48.3923 55.5911 44.1681 57.7029C39.944 59.8147 35.2855 60.9122 30.5629 60.9082ZM51.852 42.6604V33.5364H27.5216V27.4538H51.852V18.3299L67.0586 30.4951L51.852 42.6604Z" fill="#828282"/>
</svg>
