<svg width="73" height="73" viewBox="0 0 73 73" fill="none" xmlns="http://www.w3.org/2000/svg">
<path d="M44.8617 60.8274V60.0671H60.8286H63.1096V57.7861V54.7448V53.8L62.4415 53.1319L57.027 47.7174V33.4556C57.027 23.9327 52.1874 15.466 43.3411 12.5146V12.1665C43.3411 8.38242 40.2822 5.32351 36.4981 5.32351C32.7141 5.32351 29.6552 8.38242 29.6552 12.1665V12.5126C20.7821 15.4599 15.9693 23.9048 15.9693 33.4556V47.7174L10.5548 53.1319L9.88668 53.8V54.7448V57.7861V60.0671H12.1677H28.1345V60.8274C28.1345 65.4252 31.8551 69.191 36.4981 69.191C41.1033 69.191 44.8617 65.4326 44.8617 60.8274Z" stroke="#828282" stroke-width="4.56196"/>
</svg>
