<svg width="30" height="31" viewBox="0 0 30 31" fill="none" xmlns="http://www.w3.org/2000/svg">
<path d="M1.90808 3.46571C1.90808 2.91471 2.12696 2.38629 2.51657 1.99668C2.90619 1.60707 3.43461 1.38818 3.98561 1.38818H20.6058C21.1568 1.38818 21.6852 1.60707 22.0748 1.99668C22.4644 2.38629 22.6833 2.91471 22.6833 3.46571V29.0885H3.98561C3.43461 29.0885 2.90619 28.8696 2.51657 28.48C2.12696 28.0904 1.90808 27.562 1.90808 27.011V3.46571ZM22.6833 15.2383C22.6833 14.871 22.8292 14.5187 23.089 14.259C23.3487 13.9993 23.701 13.8533 24.0683 13.8533H26.8384C27.2057 13.8533 27.558 13.9993 27.8177 14.259C28.0775 14.5187 28.2234 14.871 28.2234 15.2383V27.011C28.2234 27.562 28.0045 28.0904 27.6149 28.48C27.2253 28.8696 26.6969 29.0885 26.1459 29.0885H22.6833V15.2383Z" stroke="#C2CFE0" stroke-width="2.63153" stroke-linejoin="round"/>
<path d="M6.06489 11.7772H14.375M6.06489 6.92969H11.605H6.06489Z" stroke="#C2CFE0" stroke-width="2.63153" stroke-linecap="round" stroke-linejoin="round"/>
</svg>
