<svg width="73" height="73" viewBox="0 0 73 73" fill="none" xmlns="http://www.w3.org/2000/svg">
<rect x="0.133667" width="72.8663" height="72.8663" fill="#D9D9D9" fill-opacity="0.01"/>
<path d="M50.7614 44.1477H47.8815L46.8608 43.1635C50.4333 39.0077 52.5841 33.6125 52.5841 27.7434C52.5841 14.6564 41.976 4.04834 28.889 4.04834C15.802 4.04834 5.19389 14.6564 5.19389 27.7434C5.19389 40.8304 15.802 51.4385 28.889 51.4385C34.7581 51.4385 40.1533 49.2877 44.309 45.7152L45.2933 46.736V49.6158L63.5203 67.8064L68.9519 62.3747L50.7614 44.1477ZM28.889 44.1477C19.8119 44.1477 12.4847 36.8205 12.4847 27.7434C12.4847 18.6664 19.8119 11.3391 28.889 11.3391C37.966 11.3391 45.2933 18.6664 45.2933 27.7434C45.2933 36.8205 37.966 44.1477 28.889 44.1477Z" fill="#828282"/>
</svg>
