<svg width="26" height="22" viewBox="0 0 26 22" fill="none" xmlns="http://www.w3.org/2000/svg">
<path d="M25.5072 3.87899V3.69102H25.3193H21.8902C21.3839 1.67653 19.5997 0.200217 17.4649 0.200217C15.3301 0.200217 13.546 1.67653 13.0397 3.69102H0.883606H0.695639V3.87899V5.62439V5.81236H0.883606H13.0397C13.546 7.82685 15.3301 9.30316 17.4649 9.30316C19.5997 9.30316 21.3839 7.82685 21.8902 5.81236H25.3193H25.5072V5.62439V3.87899ZM0.695639 17.8422V18.0302H0.883606H4.31269C4.81895 20.0447 6.60311 21.521 8.73792 21.521C10.8727 21.521 12.6569 20.0447 13.1632 18.0302H25.3193H25.5072V17.8422V16.0968V15.9088H25.3193H13.1632C12.6569 13.8943 10.8727 12.418 8.73792 12.418C6.60311 12.418 4.81895 13.8943 4.31269 15.9088H0.883606H0.695639V16.0968V17.8422ZM17.4649 7.18183C16.0852 7.18183 15.0348 6.13147 15.0348 4.75169C15.0348 3.37191 16.0852 2.32155 17.4649 2.32155C18.8447 2.32155 19.8951 3.37191 19.8951 4.75169C19.8951 6.13147 18.8447 7.18183 17.4649 7.18183ZM8.73792 14.5394C10.1177 14.5394 11.1681 15.5897 11.1681 16.9695C11.1681 18.3493 10.1177 19.3997 8.73792 19.3997C7.35814 19.3997 6.30778 18.3493 6.30778 16.9695C6.30778 15.5897 7.35814 14.5394 8.73792 14.5394Z" fill="#C2CFE0" stroke="#C2CFE0" stroke-width="0.375933"/>
</svg>
