<svg width="31" height="31" viewBox="0 0 31 31" fill="none" xmlns="http://www.w3.org/2000/svg">
<path d="M15.8756 7.69238C11.6984 7.69238 8.37798 11.0128 8.37798 15.19C8.37798 19.3673 11.6984 22.6877 15.8756 22.6877C20.0529 22.6877 23.3733 19.3673 23.3733 15.19C23.3733 11.0128 20.0529 7.69238 15.8756 7.69238ZM15.8756 20.5455C12.8766 20.5455 10.5202 18.1891 10.5202 15.19C10.5202 12.191 12.8766 9.83457 15.8756 9.83457C18.8747 9.83457 21.2311 12.191 21.2311 15.19C21.2311 18.1891 18.8747 20.5455 15.8756 20.5455Z" fill="#C2CFE0"/>
<path d="M29.7457 12.0973L27.1215 11.2538L26.5592 9.84803L27.8713 7.4113C28.1524 6.84898 28.0587 6.09922 27.5901 5.63061L25.3408 3.38132C24.8722 2.91272 24.1224 2.819 23.5601 3.10016L21.1234 4.41225L19.7176 3.84992L18.8741 1.22575C18.6867 0.663427 18.1243 0.194824 17.4683 0.194824H14.2818C13.6257 0.194824 13.0634 0.663427 12.9697 1.31947L12.1262 3.94364C11.5639 4.03736 11.0953 4.2248 10.6267 4.50597L8.18996 3.19388C7.62764 2.91272 6.87787 3.00644 6.40927 3.47504L4.15998 5.72433C3.69138 6.19294 3.59765 6.9427 3.87882 7.50502L5.09718 9.84803C4.90974 10.3166 4.7223 10.879 4.53486 11.3476L1.91069 12.191C1.34836 12.3785 0.879761 12.9408 0.879761 13.5969V16.7833C0.879761 17.4394 1.34836 18.0017 2.00441 18.1892L4.62858 19.0326L5.1909 20.4384L3.87882 22.8752C3.59765 23.4375 3.69138 24.1873 4.15998 24.6559L6.40927 26.9052C6.87787 27.3738 7.62764 27.4675 8.18996 27.1863L10.6267 25.8742L12.0325 26.4366L12.876 29.1545C13.0634 29.7168 13.6257 30.1854 14.2818 30.1854H17.4683C18.1243 30.1854 18.6867 29.7168 18.8741 29.1545L19.7176 26.4366L21.1234 25.8742L23.5601 27.1863C24.1224 27.4675 24.8722 27.3738 25.3408 26.9052L27.5901 24.6559C28.0587 24.1873 28.1524 23.4375 27.8713 22.8752L26.5592 20.4384L27.1215 19.0326L29.8394 18.1892C30.4017 18.0017 30.8703 17.4394 30.8703 16.7833V13.5969C30.8703 12.9408 30.4017 12.2848 29.7457 12.0973ZM28.9959 16.5022L25.622 17.5331L25.5282 18.0017L24.6848 19.9698L24.4036 20.4384L26.0906 23.5312L24.2162 25.4056L21.1234 23.7187L20.6548 23.9998C19.9987 24.3747 19.3427 24.6559 18.6867 24.8433L18.2181 24.937L17.1871 28.311H14.563L13.532 24.937L13.0634 24.8433L11.0953 23.9998L10.6267 23.7187L7.53392 25.4056L5.65951 23.5312L7.34647 20.4384L7.06531 19.9698C6.69043 19.3138 6.40927 18.6578 6.22183 18.0017L6.12811 17.5331L2.75417 16.5022V13.878L5.94067 12.9408L6.12811 12.4722C6.31555 11.7224 6.59671 11.0664 6.97159 10.4104L7.25275 9.94175L5.65951 6.84898L7.53392 4.97457L10.533 6.66154L11.0016 6.38038C11.6576 6.00549 12.3137 5.72433 13.0634 5.53689L13.532 5.34945L14.563 2.06923H17.1871L18.2181 5.34945L18.6867 5.53689C19.3427 5.72433 19.9987 6.00549 20.6548 6.38038L21.1234 6.66154L24.2162 4.97457L26.0906 6.84898L24.4036 9.94175L24.6848 10.4104C25.0596 11.0664 25.3408 11.7224 25.5282 12.3785L25.622 12.8471L28.9959 13.878V16.5022Z" fill="#C2CFE0"/>
</svg>
