<svg width="29" height="29" viewBox="0 0 29 29" fill="none" xmlns="http://www.w3.org/2000/svg">
<path d="M14.1747 8.96449C14.6845 8.96449 15.1734 8.76644 15.5338 8.41389C15.8943 8.06135 16.0968 7.5832 16.0968 7.08462C16.0968 6.58605 15.8943 6.1079 15.5338 5.75536C15.1734 5.40281 14.6845 5.20476 14.1747 5.20476C13.665 5.20476 13.1761 5.40281 12.8156 5.75536C12.4552 6.1079 12.2527 6.58605 12.2527 7.08462C12.2527 7.5832 12.4552 8.06135 12.8156 8.41389C13.1761 8.76644 13.665 8.96449 14.1747 8.96449ZM15.3151 0.56148C14.9848 0.323312 14.5851 0.194824 14.1747 0.194824C13.7643 0.194824 13.3647 0.323312 13.0343 0.56148L0.861275 9.34047C-0.630239 10.417 0.147552 12.733 2.00169 12.733H2.64238V21.809C1.88326 22.1184 1.23477 22.6406 0.778703 23.3099C0.322631 23.9793 0.0793868 24.7657 0.0796398 25.57V27.4499C0.0796398 27.9687 0.51018 28.3898 1.04067 28.3898H27.3088C27.5636 28.3898 27.8081 28.2908 27.9883 28.1145C28.1685 27.9382 28.2698 27.6992 28.2698 27.4499V25.57C28.2698 24.7659 28.0264 23.9797 27.5704 23.3107C27.1143 22.6416 26.466 22.1195 25.707 21.8103V12.733H26.3464C28.2019 12.733 28.9797 10.417 27.4869 9.34047L15.3151 0.56148ZM4.56444 21.4969V12.733H7.76786V21.4969H4.56444ZM23.785 12.733V21.4969H20.5816V12.733H23.785ZM18.6595 12.733V21.4969H15.1357V12.733H18.6595ZM13.2137 12.733V21.4969H9.68991V12.733H13.2137ZM2.00169 10.8531L14.1747 2.07415L26.3464 10.8531H2.00169ZM2.00169 25.57C2.00169 24.3594 3.00629 23.3768 4.24409 23.3768H24.1053C25.3431 23.3768 26.3477 24.3594 26.3477 25.57V26.5099H2.00169V25.57Z" fill="#C2CFE0"/>
</svg>
